<svg version="1.1" xmlns="http://www.w3.org/2000/svg" xmlns:xlink="http://www.w3.org/1999/xlink" width="47" height="47" viewBox="0,0,47,47"><g transform="translate(-216.5,-156.5)"><g data-paper-data="{&quot;isPaintingLayer&quot;:true}" fill="#000000" fill-rule="nonzero" stroke="none" stroke-width="1" stroke-linecap="butt" stroke-linejoin="miter" stroke-miterlimit="10" stroke-dasharray="" stroke-dashoffset="0" style="mix-blend-mode: normal"><path d="M240,187.83333c-4.32623,0 -7.83333,-3.5071 -7.83333,-7.83333c0,-4.32623 3.5071,-7.83333 7.83333,-7.83333c4.32623,0 7.83333,3.5071 7.83333,7.83333c0,4.32623 -3.5071,7.83333 -7.83333,7.83333zM240,176.08333c-2.16312,0 -3.91667,1.75355 -3.91667,3.91667c0,2.16312 1.75355,3.91667 3.91667,3.91667c2.16312,0 3.91667,-1.75355 3.91667,-3.91667c0,-2.16312 -1.75355,-3.91667 -3.91667,-3.91667zM251.75,201.54167c0,-6.48935 -5.26065,-11.75 -11.75,-11.75c-6.48935,0 -11.75,5.26065 -11.75,11.75c0,1.08156 0.87678,1.95833 1.95833,1.95833c1.08156,0 1.95833,-0.87678 1.95833,-1.95833c0,-4.32623 3.5071,-7.83333 7.83333,-7.83333c4.32623,0 7.83333,3.5071 7.83333,7.83333c0,1.08156 0.87678,1.95833 1.95833,1.95833c1.08156,0 1.95833,-0.87678 1.95833,-1.95833zM251.75,172.16667c-4.32623,0 -7.83333,-3.5071 -7.83333,-7.83333c0,-4.32623 3.5071,-7.83333 7.83333,-7.83333c4.32623,0 7.83333,3.5071 7.83333,7.83333c0,4.32623 -3.5071,7.83333 -7.83333,7.83333zM251.75,160.41667c-2.16312,0 -3.91667,1.75355 -3.91667,3.91667c0,2.16312 1.75355,3.91667 3.91667,3.91667c2.16312,0 3.91667,-1.75355 3.91667,-3.91667c0,-2.16312 -1.75355,-3.91667 -3.91667,-3.91667zM263.5,185.875c-0.00648,-6.48666 -5.26334,-11.74352 -11.75,-11.75c-1.08156,0 -1.95833,0.87678 -1.95833,1.95833c0,1.08156 0.87678,1.95833 1.95833,1.95833c4.32623,0 7.83333,3.5071 7.83333,7.83333c0,1.08156 0.87678,1.95833 1.95833,1.95833c1.08156,0 1.95833,-0.87678 1.95833,-1.95833zM228.25,172.16667c-4.32623,0 -7.83333,-3.5071 -7.83333,-7.83333c0,-4.32623 3.5071,-7.83333 7.83333,-7.83333c4.32623,0 7.83333,3.5071 7.83333,7.83333c0,4.32623 -3.5071,7.83333 -7.83333,7.83333zM228.25,160.41667c-2.16312,0 -3.91667,1.75355 -3.91667,3.91667c0,2.16312 1.75355,3.91667 3.91667,3.91667c2.16312,0 3.91667,-1.75355 3.91667,-3.91667c0,-2.16312 -1.75355,-3.91667 -3.91667,-3.91667zM220.41667,185.875c0,-4.32623 3.5071,-7.83333 7.83333,-7.83333c1.08156,0 1.95833,-0.87678 1.95833,-1.95833c0,-1.08156 -0.87678,-1.95833 -1.95833,-1.95833c-6.48666,0.00648 -11.74352,5.26334 -11.75,11.75c0,1.08156 0.87678,1.95833 1.95833,1.95833c1.08156,0 1.95833,-0.87678 1.95833,-1.95833z"/></g></g></svg>