<svg version="1.1" xmlns="http://www.w3.org/2000/svg" xmlns:xlink="http://www.w3.org/1999/xlink" width="36.16657" height="36.75465" viewBox="0,0,36.16657,36.75465"><g transform="translate(-116.91671,-221.62267)"><g data-paper-data="{&quot;isPaintingLayer&quot;:true}" fill-rule="nonzero" stroke="none" stroke-linecap="butt" stroke-linejoin="miter" stroke-miterlimit="10" stroke-dasharray="" stroke-dashoffset="0" style="mix-blend-mode: normal"><path d="M116.91671,258.37732v-36.75465h36.16657v36.75465z" fill="#5ce693" stroke-width="0"/><path d="M147,239.19v9.817c0,1.65685 -1.34315,3 -3,3h-18c-1.65685,0 -3,-1.34315 -3,-3v-9.817c-0.00227,-0.79607 0.31429,-1.5599 0.879,-2.121l7.585,-7.586c1.95455,-1.94883 5.11745,-1.94883 7.072,0l7.585,7.586c0.56471,0.5611 0.88127,1.32493 0.879,2.121zM138,246.073c0,-1.65685 -1.34315,-3 -3,-3c-1.65685,0 -3,1.34315 -3,3v3.934h6zM145,239.19c-0.00171,-0.26398 -0.10692,-0.51675 -0.293,-0.704l-7.585,-7.586c-1.17355,-1.16808 -3.07045,-1.16808 -4.244,0l-7.585,7.583c-0.18681,0.18799 -0.29207,0.44198 -0.293,0.707v9.817c0,0.55228 0.44772,1 1,1h4v-3.934c0,-2.76142 2.23858,-5 5,-5c2.76142,0 5,2.23858 5,5v3.934h4c0.55228,0 1,-0.44772 1,-1z" fill="#ffffff" stroke-width="1"/></g></g></svg>