<svg version="1.1" xmlns="http://www.w3.org/2000/svg" xmlns:xlink="http://www.w3.org/1999/xlink" width="51.41224" height="52.20115" viewBox="0,0,51.41224,52.20115"><g transform="translate(-213.83776,-6.0661)"><g data-paper-data="{&quot;isPaintingLayer&quot;:true}" fill-rule="nonzero" stroke-linecap="butt" stroke-linejoin="miter" stroke-miterlimit="10" stroke-dasharray="" stroke-dashoffset="0" style="mix-blend-mode: normal"><path d="M215.08776,45.95247c0,-10.09521 0,-24.22836 0,-29.5714c0,-4.10465 5.41864,-9.06497 9.75767,-9.06497c6.18969,0 23.41998,0 32.82728,0c3.80283,0 6.32729,6.69007 6.32729,9.69223c0,5.66661 0,20.63149 0,30.56593c0,5.48949 -3.39342,9.44299 -6.51271,9.44299c-5.42799,0 -23.17317,0 -33.91026,0c-5.00647,0 -8.48927,-4.73988 -8.48927,-11.06479z" fill="#ffffff" stroke-opacity="0.2" stroke="#000000" stroke-width="2.5"/><path d="M224.48983,19.37073c0,-2.90543 2.36349,-5.26892 5.26892,-5.26892c2.90543,0 5.26892,2.36349 5.26892,5.26892c0,2.90543 -2.36349,5.26892 -5.26892,5.26892c-2.90543,0 -5.26892,-2.36349 -5.26892,-5.26892zM227.50064,19.37073c0,1.24497 1.01314,2.25811 2.25811,2.25811c1.24497,0 2.25811,-1.01314 2.25811,-2.25811c0,-1.24497 -1.01314,-2.25811 -2.25811,-2.25811c-1.24497,0 -2.25811,1.01314 -2.25811,2.25811zM230.51145,27.65046c0,-0.83249 -0.67442,-1.50541 -1.50541,-1.50541c-4.1504,0 -7.52703,3.37662 -7.52703,7.52703c0,0.83249 0.67442,1.5054 1.50541,1.5054c0.83098,0 1.5054,-0.67292 1.5054,-1.5054c0,-2.48994 2.02628,-4.51622 4.51622,-4.51622c0.83098,0 1.50541,-0.67292 1.50541,-1.50541zM238.03847,38.1883h-1.5054c-4.1504,0 -7.52703,3.37662 -7.52703,7.52703c0,0.83249 0.67442,1.50541 1.50541,1.50541c0.83098,0 1.50541,-0.67292 1.50541,-1.50541c0,-2.48994 2.02628,-4.51622 4.51622,-4.51622h1.5054c0.83098,0 1.50541,-0.67292 1.50541,-1.50541c0,-0.83249 -0.67442,-1.5054 -1.50541,-1.5054zM239.54388,19.37073c0,-2.90543 2.36349,-5.26892 5.26892,-5.26892c2.90543,0 5.26892,2.36349 5.26892,5.26892c0,2.90543 -2.36349,5.26892 -5.26892,5.26892c-2.90543,0 -5.26892,-2.36349 -5.26892,-5.26892zM242.55469,19.37073c0,1.24497 1.01314,2.25811 2.25811,2.25811c1.24497,0 2.25811,-1.01314 2.25811,-2.25811c0,-1.24497 -1.01314,-2.25811 -2.25811,-2.25811c-1.24497,0 -2.25811,1.01314 -2.25811,2.25811zM244.0601,27.65046c0,0.83249 0.67442,1.50541 1.50541,1.50541c1.60777,0 3.10716,0.86561 3.91255,2.25961c0.28001,0.48173 0.78582,0.7512 1.30519,0.7512c0.25592,0 0.51635,-0.06473 0.7527,-0.20323c0.71958,-0.41549 0.96496,-1.33529 0.54947,-2.05638c-1.34282,-2.31983 -3.84179,-3.76201 -6.51991,-3.76201c-0.83098,0 -1.50541,0.67292 -1.50541,1.50541zM256.10334,41.19911h-4.51622v-4.51622c0,-0.83249 -0.67442,-1.50541 -1.5054,-1.50541c-0.83098,0 -1.50541,0.67292 -1.50541,1.50541v4.51622h-4.51622c-0.83098,0 -1.50541,0.67292 -1.50541,1.50541c0,0.83249 0.67442,1.5054 1.50541,1.5054h4.51622v4.51622c0,0.83249 0.67442,1.50541 1.50541,1.50541c0.83098,0 1.5054,-0.67292 1.5054,-1.50541v-4.51622h4.51622c0.83098,0 1.50541,-0.67292 1.50541,-1.5054c0,-0.83249 -0.67442,-1.50541 -1.50541,-1.50541zM242.55469,31.41397c0,2.90543 -2.36349,5.26892 -5.26892,5.26892c-2.90543,0 -5.26892,-2.36349 -5.26892,-5.26892c0,-2.90543 2.36349,-5.26892 5.26892,-5.26892c2.90543,0 5.26892,2.36349 5.26892,5.26892zM239.54388,31.41397c0,-1.24497 -1.01314,-2.25811 -2.25811,-2.25811c-1.24497,0 -2.25811,1.01314 -2.25811,2.25811c0,1.24497 1.01314,2.25811 2.25811,2.25811c1.24497,0 2.25811,-1.01314 2.25811,-2.25811z" fill="#000000" stroke="none" stroke-width="1"/></g></g></svg>