<svg version="1.1" xmlns="http://www.w3.org/2000/svg" xmlns:xlink="http://www.w3.org/1999/xlink" width="51.41224" height="52.20115" viewBox="0,0,51.41224,52.20115"><g transform="translate(-10.75,-12.5661)"><g data-paper-data="{&quot;isPaintingLayer&quot;:true}" fill-rule="nonzero" stroke-linecap="butt" stroke-linejoin="miter" stroke-miterlimit="10" stroke-dasharray="" stroke-dashoffset="0" style="mix-blend-mode: normal"><path d="M12,52.45247c0,-10.09521 0,-24.22836 0,-29.5714c0,-4.10465 5.41864,-9.06497 9.75767,-9.06497c6.18969,0 23.41998,0 32.82728,0c3.80283,0 6.32729,6.69007 6.32729,9.69223c0,5.66661 0,20.63149 0,30.56593c0,5.48949 -3.39342,9.44299 -6.51271,9.44299c-5.42799,0 -23.17317,0 -33.91026,0c-5.00647,0 -8.48927,-4.73988 -8.48927,-11.06479z" fill="#ffffff" stroke-opacity="0.2" stroke="#000000" stroke-width="2.5"/><path d="M30.33112,40.02778c-3.38274,0 -6.125,-2.74225 -6.125,-6.125c0,-3.38274 2.74226,-6.125 6.125,-6.125c3.38275,0 6.125,2.74226 6.125,6.125c-0.00375,3.38119 -2.74381,6.12125 -6.125,6.125zM30.33112,30.50001c-1.8793,0 -3.40278,1.52347 -3.40278,3.40277c0,1.8793 1.52348,3.40278 3.40278,3.40278c1.8793,0 3.40278,-1.52348 3.40278,-3.40278c0,-1.8793 -1.52348,-3.40277 -3.40278,-3.40277zM40.53946,53.63889v-0.68055c0,-5.6379 -4.57043,-10.20833 -10.20834,-10.20833c-5.63791,0 -10.20834,4.57043 -10.20834,10.20833v0.68055c0,0.75172 0.6094,1.36111 1.36112,1.36111c0.75172,0 1.36111,-0.60939 1.36111,-1.36111v-0.68055c0,-4.13447 3.35164,-7.48611 7.48611,-7.48611c4.13447,0 7.48611,3.35164 7.48611,7.48611v0.68055c0,0.75172 0.60939,1.36111 1.36111,1.36111c0.75172,0 1.36112,-0.60939 1.36112,-1.36111zM52.78946,46.83334c-0.0001,-3.75735 -2.20843,-7.16377 -5.63848,-8.69754c-3.43005,-1.53377 -7.4412,-0.90845 -10.2416,1.59663c-0.36755,0.32298 -0.53346,0.81837 -0.43456,1.29755c0.09889,0.47919 0.44737,0.86843 0.91276,1.0195c0.46538,0.15107 0.97603,0.04074 1.33752,-0.289c2.00044,-1.78892 4.86539,-2.23521 7.31517,-1.13952c2.44978,1.09569 4.02693,3.52873 4.02697,6.21238c0,0.75172 0.60939,1.36112 1.36111,1.36112c0.75172,0 1.36112,-0.6094 1.36112,-1.36112zM43.94223,34.58334c-3.38274,0 -6.125,-2.74225 -6.125,-6.125c0,-3.38274 2.74226,-6.125 6.125,-6.125c3.38275,0 6.125,2.74226 6.125,6.125c-0.00375,3.38119 -2.74381,6.12125 -6.125,6.125zM43.94223,25.05556c-1.8793,0 -3.40277,1.52347 -3.40277,3.40277c0,1.8793 1.52347,3.40278 3.40277,3.40278c1.8793,0 3.40278,-1.52348 3.40278,-3.40278c0,-1.8793 -1.52348,-3.40277 -3.40278,-3.40277z" fill="#000000" stroke="none" stroke-width="1"/><path d="M56.45613,50.25059c0,1.38071 -1.11929,2.5 -2.5,2.5h-5v5c0,1.38071 -1.11929,2.5 -2.5,2.5c-1.38071,0 -2.5,-1.11929 -2.5,-2.5v-5h-5c-1.38071,0 -2.5,-1.11929 -2.5,-2.5c0,-1.38071 1.11929,-2.5 2.5,-2.5h5v-5c0,-1.38071 1.11929,-2.5 2.5,-2.5c1.38071,0 2.5,1.11929 2.5,2.5v5h5c1.38071,0 2.5,1.11929 2.5,2.5z" fill="#000000" stroke="#ffffff" stroke-width="2"/></g></g></svg>