<svg version="1.1" xmlns="http://www.w3.org/2000/svg" xmlns:xlink="http://www.w3.org/1999/xlink" width="51.41224" height="52.20115" viewBox="0,0,51.41224,52.20115"><g transform="translate(-137.25,-13.0661)"><g data-paper-data="{&quot;isPaintingLayer&quot;:true}" fill-rule="nonzero" stroke-linecap="butt" stroke-linejoin="miter" stroke-miterlimit="10" stroke-dasharray="" stroke-dashoffset="0" style="mix-blend-mode: normal"><path d="M138.5,52.95247c0,-10.09521 0,-24.22836 0,-29.5714c0,-4.10465 5.41864,-9.06497 9.75767,-9.06497c6.18969,0 23.41998,0 32.82728,0c3.80283,0 6.32729,6.69007 6.32729,9.69223c0,5.66661 0,20.63149 0,30.56593c0,5.48949 -3.39342,9.44299 -6.51271,9.44299c-5.42799,0 -23.17317,0 -33.91026,0c-5.00647,0 -8.48927,-4.73988 -8.48927,-11.06479z" fill="#ffffff" stroke-opacity="0.2" stroke="#000000" stroke-width="2.5"/><path d="M162.95612,44.57144c-2.98497,0 -5.40476,-2.4198 -5.40476,-5.40476c0,-2.98497 2.4198,-5.40476 5.40476,-5.40476c2.98497,0 5.40476,2.4198 5.40476,5.40476c0,2.98497 -2.4198,5.40476 -5.40476,5.40476zM162.95612,36.4643c-1.49248,0 -2.70238,1.2099 -2.70238,2.70238c0,1.49248 1.2099,2.70238 2.70238,2.70238c1.49248,0 2.70238,-1.2099 2.70238,-2.70238c0,-1.49248 -1.2099,-2.70238 -2.70238,-2.70238zM171.06326,54.02977c0,-4.47745 -3.62969,-8.10714 -8.10714,-8.10714c-4.47745,0 -8.10714,3.62969 -8.10714,8.10714c0,0.74624 0.60495,1.35119 1.35119,1.35119c0.74624,0 1.35119,-0.60495 1.35119,-1.35119c0,-2.98497 2.4198,-5.40476 5.40476,-5.40476c2.98497,0 5.40476,2.41979 5.40476,5.40476c0,0.74624 0.60494,1.35119 1.35119,1.35119c0.74624,0 1.35119,-0.60495 1.35119,-1.35119zM171.06326,33.76191c-2.98497,0 -5.40476,-2.41979 -5.40476,-5.40476c0,-2.98497 2.4198,-5.40476 5.40476,-5.40476c2.98497,0 5.40476,2.4198 5.40476,5.40476c0,2.98497 -2.4198,5.40476 -5.40476,5.40476zM171.06326,25.65477c-1.49248,0 -2.70238,1.2099 -2.70238,2.70238c0,1.49248 1.2099,2.70238 2.70238,2.70238c1.49248,0 2.70238,-1.2099 2.70238,-2.70238c0,-1.49248 -1.2099,-2.70238 -2.70238,-2.70238zM179.17041,43.22025c-0.00447,-4.4756 -3.63154,-8.10268 -8.10714,-8.10714c-0.74624,0 -1.35119,0.60495 -1.35119,1.35119c0,0.74624 0.60495,1.35119 1.35119,1.35119c2.98497,0 5.40476,2.4198 5.40476,5.40476c0,0.74624 0.60494,1.35119 1.35119,1.35119c0.74624,0 1.35119,-0.60495 1.35119,-1.35119zM154.84898,33.76191c-2.98497,0 -5.40476,-2.41979 -5.40476,-5.40476c0,-2.98497 2.4198,-5.40476 5.40476,-5.40476c2.98497,0 5.40476,2.4198 5.40476,5.40476c0,2.98497 -2.4198,5.40476 -5.40476,5.40476zM154.84898,25.65477c-1.49248,0 -2.70238,1.2099 -2.70238,2.70238c0,1.49248 1.2099,2.70238 2.70238,2.70238c1.49248,0 2.70238,-1.2099 2.70238,-2.70238c0,-1.49248 -1.2099,-2.70238 -2.70238,-2.70238zM149.44421,43.22025c0,-2.98497 2.4198,-5.40476 5.40476,-5.40476c0.74624,0 1.35119,-0.60494 1.35119,-1.35119c0,-0.74624 -0.60495,-1.35119 -1.35119,-1.35119c-4.4756,0.00447 -8.10268,3.63154 -8.10714,8.10714c0,0.74624 0.60495,1.35119 1.35119,1.35119c0.74624,0 1.35119,-0.60495 1.35119,-1.35119z" fill="#000000" stroke="none" stroke-width="1"/></g></g></svg>