<svg version="1.1" xmlns="http://www.w3.org/2000/svg" xmlns:xlink="http://www.w3.org/1999/xlink" width="36.16657" height="36.75465" viewBox="0,0,36.16657,36.75465"><g transform="translate(-116.91671,-221.62266)"><g data-paper-data="{&quot;isPaintingLayer&quot;:true}" fill-rule="nonzero" stroke="none" stroke-linecap="butt" stroke-linejoin="miter" stroke-miterlimit="10" stroke-dasharray="" stroke-dashoffset="0" style="mix-blend-mode: normal"><path d="M116.91672,258.37732v-36.75465h36.16657v36.75465z" fill="#5ce693" stroke-width="0"/><path d="M129,234c0,-3.31371 2.68629,-6 6,-6c3.31371,0 6,2.68629 6,6c0,3.31371 -2.68629,6 -6,6c-3.31234,-0.00331 -5.99669,-2.68766 -6,-6zM131,234c0,2.20914 1.79086,4 4,4c2.20914,0 4,-1.79086 4,-4c0,-2.20914 -1.79086,-4 -4,-4c-2.20914,0 -4,1.79086 -4,4z" fill="#ffffff" stroke-width="1"/><path d="M144,251c0,0.55228 -0.44772,1 -1,1c-0.55228,0 -1,-0.44772 -1,-1c0,-3.86599 -3.13401,-7 -7,-7c-3.86599,0 -7,3.13401 -7,7c0,0.55228 -0.44772,1 -1,1c-0.55228,0 -1,-0.44772 -1,-1c0.00551,-4.96828 4.03172,-8.99449 9,-9c4.96828,0.00551 8.99449,4.03172 9,9z" fill="#ffffff" stroke-width="1"/></g></g></svg>